fd_10_states
version=1
nRows=23
nColumns=17
inDegrees=yes

# SIMM Motion File Header:
name fd_10_states
datacolumns 17
datarows 23
otherdata 1
range 0.705791 0.718361
endheader
time	/jointset/r_shoulder/r_shoulder_elev/value	/jointset/r_shoulder/r_shoulder_elev/speed	/jointset/r_elbow/r_elbow_flex/value	/jointset/r_elbow/r_elbow_flex/speed	/forceset/TRIlong/activation	/forceset/TRIlong/fiber_length	/forceset/TRIlat/activation	/forceset/TRIlat/fiber_length	/forceset/TRImed/activation	/forceset/TRImed/fiber_length	/forceset/BIClong/activation	/forceset/BIClong/fiber_length	/forceset/BICshort/activation	/forceset/BICshort/fiber_length	/forceset/BRA/activation	/forceset/BRA/fiber_length
      0.705791	     -7.810996	    -17.984934	     86.779021	   -295.054146	      0.045137	      0.163842	      0.411942	      0.101995	      0.404781	      0.097055	      0.150341	      0.102019	      0.042008	      0.100723	      0.034976	      0.069622
      0.706705	     -7.827259	    -17.631938	     86.509688	   -294.869484	      0.044813	      0.163744	      0.412373	      0.101903	      0.405092	      0.096963	      0.149629	      0.102259	      0.041727	      0.100960	      0.034789	      0.069724
      0.707163	     -7.835297	    -17.452773	     86.374597	   -294.787335	      0.044653	      0.163695	      0.412576	      0.101856	      0.405239	      0.096917	      0.149276	      0.102379	      0.041587	      0.101078	      0.034696	      0.069783
      0.707621	     -7.843252	    -17.269916	     86.239540	   -294.720863	      0.044493	      0.163646	      0.412771	      0.101810	      0.405380	      0.096871	      0.148926	      0.102499	      0.041449	      0.101196	      0.034603	      0.069833
      0.708236	     -7.853797	    -17.022034	     86.058303	   -294.643501	      0.044281	      0.163580	      0.413021	      0.101748	      0.405561	      0.096809	      0.148462	      0.102659	      0.041264	      0.101355	      0.034480	      0.069905
      0.708823	     -7.863715	    -16.780520	     85.885417	   -294.591209	      0.044080	      0.163518	      0.413246	      0.101689	      0.405723	      0.096750	      0.148024	      0.102812	      0.041090	      0.101506	      0.034363	      0.069970
      0.709410	     -7.873491	    -16.536598	     85.712558	   -294.550471	      0.043881	      0.163456	      0.413460	      0.101629	      0.405878	      0.096690	      0.147591	      0.102965	      0.040917	      0.101656	      0.034247	      0.070044
      0.709930	     -7.882033	    -16.314664	     85.559377	   -294.537908	      0.043706	      0.163400	      0.413641	      0.101577	      0.406008	      0.096638	      0.147212	      0.103100	      0.040764	      0.101790	      0.034145	      0.070098
      0.710086	     -7.884572	    -16.248129	     85.513453	   -294.534487	      0.043653	      0.163384	      0.413547	      0.101561	      0.405905	      0.096622	      0.147099	      0.103141	      0.040719	      0.101830	      0.034119	      0.070116
      0.710331	     -7.888542	    -16.142812	     85.441246	   -294.532035	      0.043572	      0.163358	      0.412736	      0.101536	      0.405066	      0.096598	      0.146924	      0.103205	      0.040648	      0.101893	      0.034101	      0.070145
      0.710710	     -7.894630	    -15.978860	     85.329617	   -294.533224	      0.043446	      0.163318	      0.411484	      0.101498	      0.403772	      0.096560	      0.146655	      0.103303	      0.040539	      0.101990	      0.034073	      0.070188
      0.712028	     -7.915310	    -15.402836	     84.941414	   -294.565827	      0.043013	      0.163179	      0.407248	      0.101368	      0.399390	      0.096430	      0.145734	      0.103645	      0.040163	      0.102329	      0.033977	      0.070340
      0.712541	     -7.923162	    -15.176190	     84.790136	   -294.589494	      0.042847	      0.163125	      0.405645	      0.101318	      0.397732	      0.096380	      0.145382	      0.103777	      0.040018	      0.102459	      0.033940	      0.070395
      0.713168	     -7.932584	    -14.900999	     84.605560	   -294.615320	      0.042646	      0.163059	      0.403725	      0.101257	      0.395746	      0.096320	      0.144956	      0.103939	      0.039843	      0.102619	      0.033896	      0.070469
      0.713794	     -7.941833	    -14.624195	     84.420968	   -294.649244	      0.042447	      0.162993	      0.401843	      0.101196	      0.393798	      0.096259	      0.144536	      0.104101	      0.039670	      0.102779	      0.033852	      0.070535
      0.714336	     -7.949698	    -14.387507	     84.261206	   -294.669706	      0.042276	      0.162936	      0.400244	      0.101144	      0.392144	      0.096207	      0.144177	      0.104241	      0.039522	      0.102918	      0.033814	      0.070603
      0.714879	     -7.957434	    -14.149333	     84.101433	   -294.697226	      0.042107	      0.162879	      0.398672	      0.101092	      0.390517	      0.096155	      0.143821	      0.104380	      0.039374	      0.103056	      0.033776	      0.070659
      0.715421	     -7.965042	    -13.914171	     83.941646	   -294.715186	      0.041939	      0.162823	      0.397126	      0.101040	      0.388918	      0.096103	      0.143469	      0.104520	      0.039228	      0.103194	      0.033739	      0.070723
      0.716073	     -7.974026	    -13.630769	     83.749394	   -294.740774	      0.041738	      0.162755	      0.395301	      0.100977	      0.387029	      0.096041	      0.143051	      0.104688	      0.039054	      0.103360	      0.033694	      0.070792
      0.716611	     -7.981301	    -13.400196	     83.590726	   -294.751405	      0.041574	      0.162699	      0.393823	      0.100926	      0.385499	      0.095990	      0.142709	      0.104826	      0.038911	      0.103497	      0.033658	      0.070859
      0.717150	     -7.988453	    -13.168820	     83.432051	   -294.766511	      0.041412	      0.162642	      0.392369	      0.100874	      0.383994	      0.095938	      0.142371	      0.104964	      0.038769	      0.103633	      0.033622	      0.070914
      0.717688	     -7.995480	    -12.940703	     83.273371	   -294.771195	      0.041250	      0.162587	      0.390939	      0.100823	      0.382514	      0.095887	      0.142036	      0.105102	      0.038629	      0.103770	      0.033586	      0.070977
      0.718361	     -8.004088	    -12.656161	     83.075110	   -294.777516	      0.041051	      0.162517	      0.389185	      0.100759	      0.380699	      0.095823	      0.141623	      0.105274	      0.038455	      0.103940	      0.033541	      0.071049
